<?xml version="1.0" standalone="no"?><!DOCTYPE svg PUBLIC "-//W3C//DTD SVG 1.1//EN" "http://www.w3.org/Graphics/SVG/1.1/DTD/svg11.dtd"><svg t="1717005805920" class="icon" viewBox="0 0 1024 1024" version="1.1" xmlns="http://www.w3.org/2000/svg" p-id="1615" width="200" height="200" xmlns:xlink="http://www.w3.org/1999/xlink"><path d="M785.514 821.287c-70.055-56.64-131.168-144.582-131.168-144.582l-10.433 8.943c19.377 26.83 78.998 102.847 126.695 141.6 49.188 38.755 96.885 73.037 111.79 84.962 14.906 13.414 8.944 20.867 4.472 29.81-7.452 17.887 14.906 26.83 22.359 5.963 1.49-4.472 2.98-10.434 2.98-17.887-2.98-28.32-56.64-52.169-126.695-108.81z" fill="#D73E3E" p-id="1617"></path><path d="M666.539 688.86c66.14-15.264 105.146 10.175 142.455 16.958-3.391-10.175-18.654-25.438-10.175-28.83 33.918-11.871 71.228-5.088 106.842-8.48-6.784-6.783-27.135-15.263-20.35-22.046 13.566-13.568 37.309-10.176 55.964-15.264-3.392-3.391-11.871-10.175-8.48-11.87 25.439-11.872 54.27-13.568 81.404-20.352-25.439-5.087-50.877-5.087-74.62-15.263-3.392-1.696 3.392-8.48 5.088-11.871-39.006-5.088-76.316 1.696-115.322-16.96 1.696-32.221 64.445-66.14 94.97-98.361-5.087 0-16.958 3.391-15.262-1.696 16.959-28.83 40.701-54.27 61.052-81.404-35.614 3.392-69.532 5.088-105.146 8.48 13.567-39.006 28.83-76.316 42.398-115.321-11.872 0-35.614 13.567-37.31 1.696-6.784-27.135 11.871-54.27 18.655-81.404-6.784 0-18.655 8.48-20.35 1.696-3.393-15.263 5.087-32.222 8.479-47.485-5.088 0-11.872 1.696-13.568-3.392-3.391-25.438 1.696-52.573 1.696-79.707-18.655 25.438-33.918 54.269-55.965 76.315-3.391 3.392-8.479-5.087-11.87-8.48-10.176 16.96-13.568 40.702-30.527 52.574-6.784 5.087-11.871-10.176-16.96-16.96-15.262 35.615-23.742 72.925-45.788 105.147-5.088 6.783-13.568-13.568-15.264-16.96-3.391-3.391-5.087 111.93-45.789 150.936-57.66-74.62-15.263-122.105-22.047-184.853-3.391 5.087-10.175 18.655-11.87 11.87-8.48-23.742-5.089-49.18-8.48-72.923-3.392 5.088-10.176 20.351-11.872 15.263-6.783-16.959-3.392-37.31-5.087-55.965-6.784 16.96-11.872 37.31-22.047 52.573-1.696 3.392-6.784-3.391-10.176-6.783-1.695 18.655-18.654 55.965-39.005 55.965-15.263 0-37.31-55.965-55.965-83.1-1.696 1.696-5.088 8.48-6.784 6.784-10.175-11.871-15.263-28.83-23.742-42.398-8.48 13.568-18.655 40.702-27.135 39.006-16.959-1.696-44.093-27.134-64.444-40.701 0 3.391 1.696 13.567-1.696 13.567-13.567-5.088-23.742-16.96-35.614-25.439 0 3.392 3.392 13.567 0 11.872-22.047-10.176-40.701-27.135-59.356-40.702 5.087 23.743 13.567 47.485 15.263 71.228 0 3.392-6.784-3.392-10.176-5.088 3.392 13.567 10.176 28.83 10.176 42.398 0 5.087-8.48-1.696-11.872-3.392 5.088 25.438 16.96 59.356 13.568 76.315-1.696 8.48-30.527 6.784-47.486 10.176 10.176 13.567 23.743 23.742 30.527 39.006 1.696 3.391-5.088 3.391-8.48 5.087 18.655 27.135 62.748 67.836 57.66 83.1-6.783 18.654-49.18 20.35-66.14 15.263 0 3.391 5.088 10.175 1.697 11.87-18.655 5.089-37.31 1.697-55.965 1.697 16.959 8.48 37.31 13.567 49.18 25.438 5.089 5.088-11.87 3.392-18.654 5.088 22.047 11.871 45.79 18.655 64.444 35.614 5.088 3.392-10.175 5.088-15.263 6.784 54.269 30.526 113.626 8.48 162.807 89.882-50.877 22.047-157.72-16.959-157.72-13.567 1.697 3.392 16.96 18.655 10.176 20.35-37.31 8.48-76.315 1.697-113.625 3.393 3.392 6.783 15.263 16.959 8.48 22.046-16.96 10.176-40.702 5.088-59.357 8.48 1.696 5.088 6.783 11.871 3.392 13.567-28.83 11.871-61.053 15.263-93.275 23.743 25.439 10.175 50.877 15.263 74.62 28.83 3.391 1.696-1.696 8.48-3.392 13.567 15.263 3.392 33.918 0 47.485 10.176 5.088 3.392-6.783 11.871-8.48 18.655 27.135 5.087 59.357-3.392 83.1 13.567 10.175 6.784-10.176 23.743-15.263 35.614 40.701 1.696 81.403 1.696 123.8 3.392-15.263 32.222-30.526 62.748-47.485 94.97 32.222-8.48 64.445-22.047 98.363-27.134 5.087 0-3.392 10.175-3.392 13.567 42.397-16.96 96.666-62.748 127.192-50.877 3.392 44.093-18.655 74.62-28.83 113.625 5.088 0 13.567-5.087 13.567-1.696 0 25.439-10.175 49.182-15.263 74.62 16.96-22.047 28.83-47.485 49.181-67.836 3.392-3.392 5.088 8.48 8.48 11.871 11.871-15.263 16.959-39.005 33.918-45.79 8.48-3.39 8.48 18.656 11.871 27.135 15.263-32.222 23.743-69.532 47.485-94.97 6.784-6.784 15.264 13.567 22.047 20.35 8.48-37.31-1.696-83.098 39.006-139.063-1.696-1.696-3.392-5.088-5.088-6.784L513.908 856.753l133.976-174.677-390.058-20.351 383.274 6.783-152.63-217.075-179.766-16.96h169.59l-142.456-235.73 154.327 225.555 64.444-139.063-50.877 156.023L658.06 656.637l161.11-418.888-157.718 429.063 242.514-64.444-242.514 78.012s1.696 3.391 5.088 8.48z" fill="#D73E3E" p-id="1618"></path></svg>